<mxfile modified="2023-04-19T09:09:35.152Z" host="app.diagrams.net" agent="Mozilla/5.0 (X11; Ubuntu; Linux x86_64; rv:109.0) Gecko/20100101 Firefox/111.0" etag="ErpLIDkOpAbknZg3pIDg" version="21.1.8" type="device">
  <diagram id="l8hXMBHkgcEJcSW0mbfh" name="Page-1">
    <mxGraphModel dx="1362" dy="886" grid="1" gridSize="10" guides="1" tooltips="1" connect="1" arrows="1" fold="1" page="1" pageScale="1" pageWidth="1169" pageHeight="827" math="0" shadow="0">
      <root>
        <mxCell id="0" />
        <mxCell id="1" parent="0" />
        <mxCell id="MIYhK5YXSJRY7cD8KouX-8" style="edgeStyle=orthogonalEdgeStyle;rounded=0;orthogonalLoop=1;jettySize=auto;html=1;entryX=0;entryY=0.5;entryDx=0;entryDy=0;strokeColor=#999999;" parent="1" source="MIYhK5YXSJRY7cD8KouX-1" target="MIYhK5YXSJRY7cD8KouX-6" edge="1">
          <mxGeometry relative="1" as="geometry" />
        </mxCell>
        <mxCell id="MIYhK5YXSJRY7cD8KouX-9" value="&amp;nbsp;&amp;nbsp; has named entity&amp;nbsp;&amp;nbsp;&amp;nbsp; " style="edgeLabel;html=1;align=center;verticalAlign=bottom;resizable=0;points=[];labelBorderColor=none;labelBackgroundColor=none;fontColor=#999999;" parent="MIYhK5YXSJRY7cD8KouX-8" vertex="1" connectable="0">
          <mxGeometry x="-0.1201" y="-2" relative="1" as="geometry">
            <mxPoint as="offset" />
          </mxGeometry>
        </mxCell>
        <mxCell id="MIYhK5YXSJRY7cD8KouX-1" value="Article" style="ellipse;whiteSpace=wrap;html=1;aspect=fixed;fillColor=#ffe6cc;strokeColor=#d79b00;" parent="1" vertex="1">
          <mxGeometry x="220" y="270" width="66" height="66" as="geometry" />
        </mxCell>
        <mxCell id="MIYhK5YXSJRY7cD8KouX-2" value="&lt;div&gt;Species&lt;/div&gt;" style="ellipse;whiteSpace=wrap;html=1;aspect=fixed;fillColor=#d5e8d4;strokeColor=#82b366;" parent="1" vertex="1">
          <mxGeometry x="50" y="100" width="66" height="66" as="geometry" />
        </mxCell>
        <mxCell id="MIYhK5YXSJRY7cD8KouX-3" value="&lt;div&gt;Chemical&lt;/div&gt;" style="ellipse;whiteSpace=wrap;html=1;aspect=fixed;fillColor=#d5e8d4;strokeColor=#82b366;" parent="1" vertex="1">
          <mxGeometry x="220" y="10" width="66" height="66" as="geometry" />
        </mxCell>
        <mxCell id="MIYhK5YXSJRY7cD8KouX-4" value="Cellline" style="ellipse;whiteSpace=wrap;html=1;aspect=fixed;fillColor=#d5e8d4;strokeColor=#82b366;" parent="1" vertex="1">
          <mxGeometry x="390" y="100" width="66" height="66" as="geometry" />
        </mxCell>
        <mxCell id="MIYhK5YXSJRY7cD8KouX-5" value="Keyword" style="ellipse;whiteSpace=wrap;html=1;aspect=fixed;fillColor=#d5e8d4;strokeColor=#82b366;" parent="1" vertex="1">
          <mxGeometry x="390" y="436" width="66" height="66" as="geometry" />
        </mxCell>
        <mxCell id="MIYhK5YXSJRY7cD8KouX-6" value="&lt;div&gt;Gene&lt;/div&gt;" style="ellipse;whiteSpace=wrap;html=1;aspect=fixed;fillColor=#dae8fc;strokeColor=#6c8ebf;" parent="1" vertex="1">
          <mxGeometry x="750" y="270" width="66" height="66" as="geometry" />
        </mxCell>
        <mxCell id="MIYhK5YXSJRY7cD8KouX-7" value="Disease" style="ellipse;whiteSpace=wrap;html=1;aspect=fixed;fillColor=#d5e8d4;strokeColor=#82b366;" parent="1" vertex="1">
          <mxGeometry x="50" y="436" width="66" height="66" as="geometry" />
        </mxCell>
        <mxCell id="MIYhK5YXSJRY7cD8KouX-10" style="edgeStyle=orthogonalEdgeStyle;rounded=0;orthogonalLoop=1;jettySize=auto;html=1;entryX=0.5;entryY=1;entryDx=0;entryDy=0;exitX=0.5;exitY=0;exitDx=0;exitDy=0;strokeColor=#999999;" parent="1" source="MIYhK5YXSJRY7cD8KouX-1" target="MIYhK5YXSJRY7cD8KouX-3" edge="1">
          <mxGeometry relative="1" as="geometry">
            <mxPoint x="296.0000000000002" y="313" as="sourcePoint" />
            <mxPoint x="560.9999999999948" y="313" as="targetPoint" />
          </mxGeometry>
        </mxCell>
        <mxCell id="MIYhK5YXSJRY7cD8KouX-11" value="&amp;nbsp;&amp;nbsp; has named entity&amp;nbsp;&amp;nbsp;&amp;nbsp; " style="edgeLabel;html=1;align=center;verticalAlign=bottom;resizable=0;points=[];rotation=90;labelBorderColor=none;labelBackgroundColor=none;fontColor=#999999;" parent="MIYhK5YXSJRY7cD8KouX-10" vertex="1" connectable="0">
          <mxGeometry relative="1" as="geometry">
            <mxPoint as="offset" />
          </mxGeometry>
        </mxCell>
        <mxCell id="MIYhK5YXSJRY7cD8KouX-12" style="rounded=0;orthogonalLoop=1;jettySize=auto;html=1;entryX=1;entryY=1;entryDx=0;entryDy=0;exitX=0;exitY=0;exitDx=0;exitDy=0;strokeColor=#999999;" parent="1" source="MIYhK5YXSJRY7cD8KouX-1" target="MIYhK5YXSJRY7cD8KouX-2" edge="1">
          <mxGeometry relative="1" as="geometry">
            <mxPoint x="263.0000000000002" y="280" as="sourcePoint" />
            <mxPoint x="263.0000000000002" y="86.00000000000011" as="targetPoint" />
          </mxGeometry>
        </mxCell>
        <mxCell id="MIYhK5YXSJRY7cD8KouX-13" value="&amp;nbsp;&amp;nbsp; has named entity&amp;nbsp;&amp;nbsp;&amp;nbsp; " style="edgeLabel;html=1;align=center;verticalAlign=bottom;resizable=0;points=[];rotation=45;labelBorderColor=none;labelBackgroundColor=none;fontColor=#999999;" parent="MIYhK5YXSJRY7cD8KouX-12" vertex="1" connectable="0">
          <mxGeometry relative="1" as="geometry">
            <mxPoint as="offset" />
          </mxGeometry>
        </mxCell>
        <mxCell id="MIYhK5YXSJRY7cD8KouX-14" style="rounded=0;orthogonalLoop=1;jettySize=auto;html=1;entryX=0;entryY=1;entryDx=0;entryDy=0;exitX=1;exitY=0;exitDx=0;exitDy=0;strokeColor=#999999;" parent="1" source="MIYhK5YXSJRY7cD8KouX-1" target="MIYhK5YXSJRY7cD8KouX-4" edge="1">
          <mxGeometry relative="1" as="geometry">
            <mxPoint x="239.66547622084795" y="289.6654762208477" as="sourcePoint" />
            <mxPoint x="116.33452377915978" y="166.3345237791599" as="targetPoint" />
          </mxGeometry>
        </mxCell>
        <mxCell id="MIYhK5YXSJRY7cD8KouX-15" value="&amp;nbsp;&amp;nbsp; has named entity&amp;nbsp;&amp;nbsp;&amp;nbsp; " style="edgeLabel;html=1;align=center;verticalAlign=bottom;resizable=0;points=[];rotation=315;labelBorderColor=none;labelBackgroundColor=none;fontColor=#999999;" parent="MIYhK5YXSJRY7cD8KouX-14" vertex="1" connectable="0">
          <mxGeometry relative="1" as="geometry">
            <mxPoint as="offset" />
          </mxGeometry>
        </mxCell>
        <mxCell id="MIYhK5YXSJRY7cD8KouX-16" style="rounded=0;orthogonalLoop=1;jettySize=auto;html=1;entryX=1;entryY=0;entryDx=0;entryDy=0;exitX=0;exitY=1;exitDx=0;exitDy=0;strokeColor=#999999;" parent="1" source="MIYhK5YXSJRY7cD8KouX-1" target="MIYhK5YXSJRY7cD8KouX-7" edge="1">
          <mxGeometry relative="1" as="geometry">
            <mxPoint x="239.66547622084795" y="289.6654762208477" as="sourcePoint" />
            <mxPoint x="116.33452377915978" y="166.3345237791599" as="targetPoint" />
          </mxGeometry>
        </mxCell>
        <mxCell id="MIYhK5YXSJRY7cD8KouX-17" value="&amp;nbsp;&amp;nbsp; has named entity&amp;nbsp;&amp;nbsp;&amp;nbsp; " style="edgeLabel;html=1;align=center;verticalAlign=bottom;resizable=0;points=[];rotation=315;labelBorderColor=none;labelBackgroundColor=none;fontColor=#999999;" parent="MIYhK5YXSJRY7cD8KouX-16" vertex="1" connectable="0">
          <mxGeometry relative="1" as="geometry">
            <mxPoint as="offset" />
          </mxGeometry>
        </mxCell>
        <mxCell id="MIYhK5YXSJRY7cD8KouX-18" style="rounded=0;orthogonalLoop=1;jettySize=auto;html=1;entryX=0;entryY=0;entryDx=0;entryDy=0;exitX=1;exitY=1;exitDx=0;exitDy=0;strokeColor=#999999;" parent="1" source="MIYhK5YXSJRY7cD8KouX-1" target="MIYhK5YXSJRY7cD8KouX-5" edge="1">
          <mxGeometry relative="1" as="geometry">
            <mxPoint x="239.66547622084795" y="336.3345237791523" as="sourcePoint" />
            <mxPoint x="116.33452377915978" y="455.66547622084" as="targetPoint" />
          </mxGeometry>
        </mxCell>
        <mxCell id="MIYhK5YXSJRY7cD8KouX-19" value="&amp;nbsp;&amp;nbsp; has named entity&amp;nbsp;&amp;nbsp;&amp;nbsp; " style="edgeLabel;html=1;align=center;verticalAlign=bottom;resizable=0;points=[];rotation=45;labelBorderColor=none;labelBackgroundColor=none;fontColor=#999999;" parent="MIYhK5YXSJRY7cD8KouX-18" vertex="1" connectable="0">
          <mxGeometry relative="1" as="geometry">
            <mxPoint as="offset" />
          </mxGeometry>
        </mxCell>
        <mxCell id="MIYhK5YXSJRY7cD8KouX-20" style="edgeStyle=orthogonalEdgeStyle;rounded=0;orthogonalLoop=1;jettySize=auto;html=1;curved=1;strokeColor=#999999;" parent="1" source="MIYhK5YXSJRY7cD8KouX-1" target="MIYhK5YXSJRY7cD8KouX-1" edge="1">
          <mxGeometry relative="1" as="geometry">
            <Array as="points">
              <mxPoint x="180" y="300" />
            </Array>
          </mxGeometry>
        </mxCell>
        <mxCell id="MIYhK5YXSJRY7cD8KouX-21" value="&lt;div&gt;cites&lt;/div&gt;" style="edgeLabel;html=1;align=center;verticalAlign=middle;resizable=0;points=[];labelBorderColor=none;labelBackgroundColor=none;fontColor=#999999;" parent="MIYhK5YXSJRY7cD8KouX-20" vertex="1" connectable="0">
          <mxGeometry x="-0.5052" y="-1" relative="1" as="geometry">
            <mxPoint x="-26" y="-2" as="offset" />
          </mxGeometry>
        </mxCell>
        <mxCell id="MIYhK5YXSJRY7cD8KouX-22" value="&lt;div&gt;GO&lt;/div&gt;&lt;div&gt;&lt;span&gt;&lt;font style=&quot;font-size: 10px;&quot;&gt;Molecular Function&lt;/font&gt;&lt;/span&gt;&lt;/div&gt;" style="ellipse;whiteSpace=wrap;html=1;aspect=fixed;fillColor=#fff2cc;strokeColor=#d6b656;" parent="1" vertex="1">
          <mxGeometry x="580" y="100" width="66" height="66" as="geometry" />
        </mxCell>
        <mxCell id="MIYhK5YXSJRY7cD8KouX-24" style="rounded=0;orthogonalLoop=1;jettySize=auto;html=1;entryX=1;entryY=1;entryDx=0;entryDy=0;exitX=0;exitY=0;exitDx=0;exitDy=0;startArrow=classic;startFill=1;endArrow=none;endFill=0;strokeColor=#999999;" parent="1" source="MIYhK5YXSJRY7cD8KouX-6" target="MIYhK5YXSJRY7cD8KouX-22" edge="1">
          <mxGeometry relative="1" as="geometry">
            <mxPoint x="763.3354762208479" y="253.33547622084774" as="sourcePoint" />
            <mxPoint x="640.0045237791597" y="130.0045237791599" as="targetPoint" />
          </mxGeometry>
        </mxCell>
        <mxCell id="MIYhK5YXSJRY7cD8KouX-25" value="&amp;nbsp;&amp;nbsp; contains gene&amp;nbsp;&amp;nbsp; " style="edgeLabel;html=1;align=center;verticalAlign=bottom;resizable=0;points=[];rotation=45;labelBorderColor=none;labelBackgroundColor=none;fontColor=#999999;" parent="MIYhK5YXSJRY7cD8KouX-24" vertex="1" connectable="0">
          <mxGeometry relative="1" as="geometry">
            <mxPoint as="offset" />
          </mxGeometry>
        </mxCell>
        <mxCell id="MIYhK5YXSJRY7cD8KouX-27" value="&lt;div&gt;Biocarta&lt;/div&gt;&lt;div&gt;pathway&lt;br&gt;&lt;/div&gt;" style="ellipse;whiteSpace=wrap;html=1;aspect=fixed;fillColor=#fff2cc;strokeColor=#d6b656;" parent="1" vertex="1">
          <mxGeometry x="1000" y="270" width="66" height="66" as="geometry" />
        </mxCell>
        <mxCell id="MIYhK5YXSJRY7cD8KouX-28" value="&lt;div&gt;GO&lt;/div&gt;&lt;div&gt;&lt;span&gt;&lt;font style=&quot;font-size: 10px;&quot;&gt;Cellular Component&lt;/font&gt;&lt;/span&gt;&lt;/div&gt;" style="ellipse;whiteSpace=wrap;html=1;aspect=fixed;fillColor=#fff2cc;strokeColor=#d6b656;" parent="1" vertex="1">
          <mxGeometry x="750" y="10" width="66" height="66" as="geometry" />
        </mxCell>
        <mxCell id="MIYhK5YXSJRY7cD8KouX-29" value="&lt;div&gt;GO&lt;/div&gt;&lt;div&gt;&lt;span&gt;&lt;font style=&quot;font-size: 10px;&quot;&gt;Biological Process&lt;/font&gt;&lt;/span&gt;&lt;/div&gt;" style="ellipse;whiteSpace=wrap;html=1;aspect=fixed;fillColor=#fff2cc;strokeColor=#d6b656;" parent="1" vertex="1">
          <mxGeometry x="880" y="60" width="66" height="66" as="geometry" />
        </mxCell>
        <mxCell id="MIYhK5YXSJRY7cD8KouX-30" value="&lt;div&gt;Netpath&lt;/div&gt;&lt;div&gt;pathway&lt;br&gt;&lt;/div&gt;" style="ellipse;whiteSpace=wrap;html=1;aspect=fixed;fillColor=#fff2cc;strokeColor=#d6b656;" parent="1" vertex="1">
          <mxGeometry x="750" y="530" width="66" height="66" as="geometry" />
        </mxCell>
        <mxCell id="MIYhK5YXSJRY7cD8KouX-31" value="&lt;div&gt;Reactome&lt;/div&gt;&lt;div&gt;pathway&lt;br&gt;&lt;/div&gt;" style="ellipse;whiteSpace=wrap;html=1;aspect=fixed;fillColor=#fff2cc;strokeColor=#d6b656;" parent="1" vertex="1">
          <mxGeometry x="880" y="490" width="66" height="66" as="geometry" />
        </mxCell>
        <mxCell id="MIYhK5YXSJRY7cD8KouX-32" style="edgeStyle=orthogonalEdgeStyle;rounded=0;orthogonalLoop=1;jettySize=auto;html=1;entryX=0.5;entryY=0;entryDx=0;entryDy=0;exitX=0.5;exitY=1;exitDx=0;exitDy=0;startArrow=classic;startFill=1;endArrow=none;endFill=0;strokeColor=#999999;" parent="1" source="MIYhK5YXSJRY7cD8KouX-6" target="MIYhK5YXSJRY7cD8KouX-30" edge="1">
          <mxGeometry relative="1" as="geometry">
            <mxPoint x="660" y="390" as="sourcePoint" />
            <mxPoint x="782.5700000000003" y="336.0000000000001" as="targetPoint" />
          </mxGeometry>
        </mxCell>
        <mxCell id="MIYhK5YXSJRY7cD8KouX-33" value="&amp;nbsp;&amp;nbsp; contains gene&amp;nbsp;&amp;nbsp; " style="edgeLabel;html=1;align=center;verticalAlign=bottom;resizable=0;points=[];rotation=90;labelBorderColor=none;labelBackgroundColor=none;fontColor=#999999;" parent="MIYhK5YXSJRY7cD8KouX-32" vertex="1" connectable="0">
          <mxGeometry relative="1" as="geometry">
            <mxPoint as="offset" />
          </mxGeometry>
        </mxCell>
        <mxCell id="MIYhK5YXSJRY7cD8KouX-34" value="&lt;div&gt;KEGG&lt;/div&gt;&lt;div&gt;pathway&lt;br&gt;&lt;/div&gt;" style="ellipse;whiteSpace=wrap;html=1;aspect=fixed;fillColor=#fff2cc;strokeColor=#d6b656;" parent="1" vertex="1">
          <mxGeometry x="580" y="436" width="66" height="66" as="geometry" />
        </mxCell>
        <mxCell id="MIYhK5YXSJRY7cD8KouX-35" value="Mutation" style="ellipse;whiteSpace=wrap;html=1;aspect=fixed;fillColor=#d5e8d4;strokeColor=#82b366;" parent="1" vertex="1">
          <mxGeometry x="220" y="530" width="66" height="66" as="geometry" />
        </mxCell>
        <mxCell id="MIYhK5YXSJRY7cD8KouX-36" style="edgeStyle=orthogonalEdgeStyle;rounded=0;orthogonalLoop=1;jettySize=auto;html=1;entryX=0.5;entryY=0;entryDx=0;entryDy=0;exitX=0.5;exitY=1;exitDx=0;exitDy=0;strokeColor=#999999;" parent="1" source="MIYhK5YXSJRY7cD8KouX-1" target="MIYhK5YXSJRY7cD8KouX-35" edge="1">
          <mxGeometry relative="1" as="geometry">
            <mxPoint x="263.0000000000002" y="280" as="sourcePoint" />
            <mxPoint x="263.0000000000002" y="86.00000000000011" as="targetPoint" />
          </mxGeometry>
        </mxCell>
        <mxCell id="MIYhK5YXSJRY7cD8KouX-37" value="&amp;nbsp;&amp;nbsp; has named entity&amp;nbsp;&amp;nbsp;&amp;nbsp; " style="edgeLabel;html=1;align=center;verticalAlign=bottom;resizable=0;points=[];rotation=90;labelBorderColor=none;labelBackgroundColor=none;fontColor=#999999;" parent="MIYhK5YXSJRY7cD8KouX-36" vertex="1" connectable="0">
          <mxGeometry relative="1" as="geometry">
            <mxPoint as="offset" />
          </mxGeometry>
        </mxCell>
        <mxCell id="MIYhK5YXSJRY7cD8KouX-38" style="rounded=0;orthogonalLoop=1;jettySize=auto;html=1;entryX=1;entryY=0;entryDx=0;entryDy=0;exitX=0;exitY=1;exitDx=0;exitDy=0;startArrow=classic;startFill=1;endArrow=none;endFill=0;strokeColor=#999999;" parent="1" source="MIYhK5YXSJRY7cD8KouX-6" target="MIYhK5YXSJRY7cD8KouX-34" edge="1">
          <mxGeometry relative="1" as="geometry">
            <mxPoint x="749.9954762208479" y="330.0045237791523" as="sourcePoint" />
            <mxPoint x="626.6645237791597" y="449.33547622084" as="targetPoint" />
          </mxGeometry>
        </mxCell>
        <mxCell id="MIYhK5YXSJRY7cD8KouX-39" value="&amp;nbsp;&amp;nbsp; contains gene&amp;nbsp;&amp;nbsp; " style="edgeLabel;html=1;align=center;verticalAlign=bottom;resizable=0;points=[];rotation=315;labelBorderColor=none;labelBackgroundColor=none;fontColor=#999999;" parent="MIYhK5YXSJRY7cD8KouX-38" vertex="1" connectable="0">
          <mxGeometry relative="1" as="geometry">
            <mxPoint as="offset" />
          </mxGeometry>
        </mxCell>
        <mxCell id="MIYhK5YXSJRY7cD8KouX-40" style="rounded=0;orthogonalLoop=1;jettySize=auto;html=1;entryX=0;entryY=0;entryDx=0;entryDy=0;exitX=1;exitY=1;exitDx=0;exitDy=0;startArrow=classic;startFill=1;endArrow=none;endFill=0;strokeColor=#999999;" parent="1" source="MIYhK5YXSJRY7cD8KouX-6" target="MIYhK5YXSJRY7cD8KouX-31" edge="1">
          <mxGeometry relative="1" as="geometry">
            <mxPoint x="800.0045237791522" y="336.00452377915207" as="sourcePoint" />
            <mxPoint x="923.3354762208329" y="455.33547622083273" as="targetPoint" />
          </mxGeometry>
        </mxCell>
        <mxCell id="MIYhK5YXSJRY7cD8KouX-41" value="&amp;nbsp;&amp;nbsp; contains gene&amp;nbsp;&amp;nbsp; " style="edgeLabel;html=1;align=center;verticalAlign=bottom;resizable=0;points=[];rotation=63;labelBorderColor=none;labelBackgroundColor=none;fontColor=#999999;" parent="MIYhK5YXSJRY7cD8KouX-40" vertex="1" connectable="0">
          <mxGeometry relative="1" as="geometry">
            <mxPoint as="offset" />
          </mxGeometry>
        </mxCell>
        <mxCell id="MIYhK5YXSJRY7cD8KouX-42" style="edgeStyle=orthogonalEdgeStyle;rounded=0;orthogonalLoop=1;jettySize=auto;html=1;entryX=0;entryY=0.5;entryDx=0;entryDy=0;exitX=1;exitY=0.5;exitDx=0;exitDy=0;startArrow=classic;startFill=1;endArrow=none;endFill=0;strokeColor=#999999;" parent="1" source="MIYhK5YXSJRY7cD8KouX-6" target="MIYhK5YXSJRY7cD8KouX-27" edge="1">
          <mxGeometry relative="1" as="geometry">
            <mxPoint x="820" y="260" as="sourcePoint" />
            <mxPoint x="760.000000000005" y="313" as="targetPoint" />
          </mxGeometry>
        </mxCell>
        <mxCell id="MIYhK5YXSJRY7cD8KouX-43" value="&amp;nbsp;&amp;nbsp; contains gene&amp;nbsp;&amp;nbsp; " style="edgeLabel;html=1;align=center;verticalAlign=bottom;resizable=0;points=[];labelBorderColor=none;labelBackgroundColor=none;fontColor=#999999;" parent="MIYhK5YXSJRY7cD8KouX-42" vertex="1" connectable="0">
          <mxGeometry x="-0.1201" y="-2" relative="1" as="geometry">
            <mxPoint as="offset" />
          </mxGeometry>
        </mxCell>
        <mxCell id="MIYhK5YXSJRY7cD8KouX-44" style="rounded=0;orthogonalLoop=1;jettySize=auto;html=1;entryX=0;entryY=1;entryDx=0;entryDy=0;exitX=1;exitY=0;exitDx=0;exitDy=0;startArrow=classic;startFill=1;endArrow=none;endFill=0;strokeColor=#999999;" parent="1" source="MIYhK5YXSJRY7cD8KouX-6" target="MIYhK5YXSJRY7cD8KouX-29" edge="1">
          <mxGeometry relative="1" as="geometry">
            <mxPoint x="770.0045237791524" y="289.33547622084797" as="sourcePoint" />
            <mxPoint x="893.335476220833" y="166.00452377916739" as="targetPoint" />
          </mxGeometry>
        </mxCell>
        <mxCell id="MIYhK5YXSJRY7cD8KouX-45" value="&amp;nbsp;&amp;nbsp; contains gene&amp;nbsp;&amp;nbsp; " style="edgeLabel;html=1;align=center;verticalAlign=bottom;resizable=0;points=[];rotation=299;labelBorderColor=none;labelBackgroundColor=none;fontColor=#999999;" parent="MIYhK5YXSJRY7cD8KouX-44" vertex="1" connectable="0">
          <mxGeometry relative="1" as="geometry">
            <mxPoint as="offset" />
          </mxGeometry>
        </mxCell>
        <mxCell id="MIYhK5YXSJRY7cD8KouX-46" style="edgeStyle=orthogonalEdgeStyle;rounded=0;orthogonalLoop=1;jettySize=auto;html=1;entryX=0.5;entryY=1;entryDx=0;entryDy=0;exitX=0.5;exitY=0;exitDx=0;exitDy=0;startArrow=classic;startFill=1;endArrow=none;endFill=0;strokeColor=#999999;" parent="1" source="MIYhK5YXSJRY7cD8KouX-6" target="MIYhK5YXSJRY7cD8KouX-28" edge="1">
          <mxGeometry relative="1" as="geometry">
            <mxPoint x="750" y="190" as="sourcePoint" />
            <mxPoint x="820.0000000000002" y="76.00000000000011" as="targetPoint" />
          </mxGeometry>
        </mxCell>
        <mxCell id="MIYhK5YXSJRY7cD8KouX-47" value="&amp;nbsp;&amp;nbsp; contains gene&amp;nbsp;&amp;nbsp; " style="edgeLabel;html=1;align=center;verticalAlign=bottom;resizable=0;points=[];rotation=90;labelBorderColor=none;labelBackgroundColor=none;fontColor=#999999;" parent="MIYhK5YXSJRY7cD8KouX-46" vertex="1" connectable="0">
          <mxGeometry relative="1" as="geometry">
            <mxPoint as="offset" />
          </mxGeometry>
        </mxCell>
        <mxCell id="MIYhK5YXSJRY7cD8KouX-48" value="&lt;div&gt;PID&lt;/div&gt;&lt;div&gt;pathway&lt;br&gt;&lt;/div&gt;" style="ellipse;whiteSpace=wrap;html=1;aspect=fixed;fillColor=#fff2cc;strokeColor=#d6b656;" parent="1" vertex="1">
          <mxGeometry x="970" y="150" width="66" height="66" as="geometry" />
        </mxCell>
        <mxCell id="MIYhK5YXSJRY7cD8KouX-49" style="rounded=0;orthogonalLoop=1;jettySize=auto;html=1;entryX=0.039;entryY=0.734;entryDx=0;entryDy=0;exitX=0.974;exitY=0.26;exitDx=0;exitDy=0;exitPerimeter=0;entryPerimeter=0;startArrow=classic;startFill=1;endArrow=none;endFill=0;strokeColor=#999999;" parent="1" source="MIYhK5YXSJRY7cD8KouX-6" target="MIYhK5YXSJRY7cD8KouX-48" edge="1">
          <mxGeometry relative="1" as="geometry">
            <mxPoint x="769.66547622084" y="289.6654762208402" as="sourcePoint" />
            <mxPoint x="646.3345237791596" y="166.3345237791599" as="targetPoint" />
          </mxGeometry>
        </mxCell>
        <mxCell id="MIYhK5YXSJRY7cD8KouX-50" value="&amp;nbsp;&amp;nbsp; contains gene&amp;nbsp;&amp;nbsp; " style="edgeLabel;html=1;align=center;verticalAlign=bottom;resizable=0;points=[];rotation=326;labelBorderColor=none;labelBackgroundColor=none;fontColor=#999999;" parent="MIYhK5YXSJRY7cD8KouX-49" vertex="1" connectable="0">
          <mxGeometry relative="1" as="geometry">
            <mxPoint as="offset" />
          </mxGeometry>
        </mxCell>
        <mxCell id="MIYhK5YXSJRY7cD8KouX-51" value="&lt;div&gt;Wiki&lt;/div&gt;&lt;div&gt;pathway&lt;br&gt;&lt;/div&gt;" style="ellipse;whiteSpace=wrap;html=1;aspect=fixed;fillColor=#fff2cc;strokeColor=#d6b656;" parent="1" vertex="1">
          <mxGeometry x="970" y="390" width="66" height="66" as="geometry" />
        </mxCell>
        <mxCell id="MIYhK5YXSJRY7cD8KouX-52" style="rounded=0;orthogonalLoop=1;jettySize=auto;html=1;entryX=0.039;entryY=0.286;entryDx=0;entryDy=0;exitX=0.948;exitY=0.734;exitDx=0;exitDy=0;exitPerimeter=0;entryPerimeter=0;startArrow=classic;startFill=1;endArrow=none;endFill=0;strokeColor=#999999;" parent="1" source="MIYhK5YXSJRY7cD8KouX-6" target="MIYhK5YXSJRY7cD8KouX-51" edge="1">
          <mxGeometry relative="1" as="geometry">
            <mxPoint x="824.2839999999997" y="297.1600000000001" as="sourcePoint" />
            <mxPoint x="979.9999999999945" y="193.0000000000001" as="targetPoint" />
          </mxGeometry>
        </mxCell>
        <mxCell id="MIYhK5YXSJRY7cD8KouX-53" value="&amp;nbsp;&amp;nbsp; contains gene&amp;nbsp;&amp;nbsp; " style="edgeLabel;html=1;align=center;verticalAlign=bottom;resizable=0;points=[];rotation=29;labelBorderColor=none;labelBackgroundColor=none;fontColor=#999999;" parent="MIYhK5YXSJRY7cD8KouX-52" vertex="1" connectable="0">
          <mxGeometry relative="1" as="geometry">
            <mxPoint as="offset" />
          </mxGeometry>
        </mxCell>
      </root>
    </mxGraphModel>
  </diagram>
</mxfile>
